<svg id="91450055-5a0a-40e7-8512-5056cde68b4d" data-name="Layer 1" xmlns="http://www.w3.org/2000/svg" viewBox="0 0 2779.88 1159.3"><defs><style>.\36 7f8d816-7461-4fee-a520-6b8cdb5b8ed1{fill:#3775ad;}.\30 5330939-1048-4c0c-9680-c47d3925157e{fill:#2a558d;}.\30 18a57af-5ce7-4272-928f-a85e7bec577a{fill:#e12722;}</style></defs><title>Artboard 1</title><path id="6be584ca-4fab-4aa1-a383-b9cbe7f73290" data-name="SVGID" class="67f8d816-7461-4fee-a520-6b8cdb5b8ed1" d="M0,450.55,254.17,583.31V854.84M0,450.54V722.08L254.17,854.84"/><path id="6ea100fc-f12d-4b39-8db7-a917cf4ed56e" data-name="SVGID-2" class="05330939-1048-4c0c-9680-c47d3925157e" d="M267.18,558.66,14.83,425.91,269,295.42,523.2,426.66l-256,132Z"/><polyline id="7bce8c1e-36ca-4648-8d97-300b3514aa0c" data-name="SVGID-3" class="018a57af-5ce7-4272-928f-a85e7bec577a" points="283.86 583.42 538.04 450.54 538.04 722.08 283.86 854.95"/><path id="e990b856-b948-4cbd-a9fb-3bcb137a01c4" data-name="SVGID-4" class="67f8d816-7461-4fee-a520-6b8cdb5b8ed1" d="M0,755,254.17,887.78V1159.3M0,755v271.52L254.17,1159.3"/><path id="cfc5367f-0f24-4bb9-a821-59c6ad4d9dcd" data-name="SVGID-5" class="05330939-1048-4c0c-9680-c47d3925157e" d="M283.1,0,537.28,132.76V404.28M283.1,0V271.52L537.28,404.28"/><path class="05330939-1048-4c0c-9680-c47d3925157e" d="M638.18,423H798.86q36.67,0,66.73,9.13t51.87,26.45a119.87,119.87,0,0,1,33.85,42.2q12,24.88,12,57V559q0,34.65-13.93,61.1a129,129,0,0,1-37.64,44.08q-23.7,17.64-55,26.46a242.88,242.88,0,0,1-66.11,8.81H671.07V863.9H638.18ZM792.53,669.92q31,0,56.3-7.6t43.33-21.85a101.19,101.19,0,0,0,28.14-34.53q10.11-20.27,10.13-45V559.7q0-26.61-9.81-46.56a91.53,91.53,0,0,0-27.51-33.26q-17.72-13.31-42.38-20.27t-54.4-7H671.07V669.93H792.53Z"/><path class="05330939-1048-4c0c-9680-c47d3925157e" d="M1093,966.55a140.05,140.05,0,0,1-32.9-3.53,197.22,197.22,0,0,1-31-10.63L1039.87,925a114.1,114.1,0,0,0,24.67,9.13q12,2.83,30.36,2.83a70.31,70.31,0,0,0,23.41-3.77,56.55,56.55,0,0,0,20.24-12.9,118,118,0,0,0,18.34-23.58,275.56,275.56,0,0,0,17.72-35.22l-155-318.81h36.05l134.11,287.2,116.4-287.2h34.15l-139.8,332.55q-21.52,50.37-47.13,70.85T1093,966.55Z"/><path class="67f8d816-7461-4fee-a520-6b8cdb5b8ed1" d="M1424.28,434.55h147.39q51.87,0,95.2,16.69t74.64,46.29a206,206,0,0,1,48.39,69.59q17.08,40,17.09,86.6V655q0,46.62-17.09,86.91a205,205,0,0,1-48.39,69.91q-31.29,29.61-74.64,46.6t-95.2,17H1424.28Zm147.39,411.27q46.17,0,83.5-14.85t63.26-40.44a180.42,180.42,0,0,0,40.18-60q14.22-34.44,14.23-74.26V655a193.1,193.1,0,0,0-14.23-73.92,183,183,0,0,0-40.18-60.67q-26-25.9-63.26-41.07t-83.5-15.16h-114.5V845.83h114.5Z"/><path class="67f8d816-7461-4fee-a520-6b8cdb5b8ed1" d="M2010,883a163.48,163.48,0,0,1-44.9-6.29,129.17,129.17,0,0,1-39.86-18.9,100.49,100.49,0,0,1-28.78-31.5q-11.07-18.88-11.07-44.08V781q0-25.19,10.44-44.72a95.28,95.28,0,0,1,28.78-32.75q18.35-13.21,44.28-20.15t57.56-6.93q34.15,0,58.83,3.77a445.2,445.2,0,0,1,48.08,10.08v-13.8q0-48.84-28.16-73.27t-78.12-24.43q-29.74,0-54.4,7.24a268.1,268.1,0,0,0-46.81,18.58l-11.39-27.11a329.48,329.48,0,0,1,53.78-20.59q27.18-7.73,60.73-7.73,66.42,0,101.84,35.27,32.88,32.75,32.9,90.69V875.4h-30.36V821.87a160.83,160.83,0,0,1-19.92,22.36,135.8,135.8,0,0,1-26.89,19.52A156.55,156.55,0,0,1,2010,883Zm1.91-29.6a150.2,150.2,0,0,0,46.81-7.21,128.61,128.61,0,0,0,38.89-20.07,96.79,96.79,0,0,0,26.58-31A83.2,83.2,0,0,0,2134,755V718.54q-20.25-5-47.44-9.72t-62-4.71q-51.25,0-78.76,20.39t-27.52,54.24V780q0,17.57,7.59,31a70.77,70.77,0,0,0,20.55,22.89,97.47,97.47,0,0,0,30,14.43,125,125,0,0,0,35.49,5.06Z"/><path class="67f8d816-7461-4fee-a520-6b8cdb5b8ed1" d="M2382.63,881.09a120.63,120.63,0,0,1-35.42-5,74.19,74.19,0,0,1-48.08-43.77q-7-16.67-7-39.36V582.55h-46.81V554.21h46.81V451.56h31V554.22h113.24v28.34h-113.2V789.29q0,34.59,18,48.39t46.5,13.82a105,105,0,0,0,22.77-2.38,142.94,142.94,0,0,0,24.67-8.33v29a135.43,135.43,0,0,1-25,8.5A123.21,123.21,0,0,1,2382.63,881.09Z"/><path class="67f8d816-7461-4fee-a520-6b8cdb5b8ed1" d="M2626.18,883a163.68,163.68,0,0,1-44.92-6.29,128.89,128.89,0,0,1-39.85-18.9,100.26,100.26,0,0,1-28.78-31.5q-11.07-18.88-11.06-44.08V781q0-25.19,10.42-44.72a95.49,95.49,0,0,1,28.78-32.75q18.34-13.21,44.29-20.15t57.56-6.93q34.15,0,58.83,3.77a444.85,444.85,0,0,1,48.06,10.08v-13.8q0-48.84-28.14-73.27t-78.13-24.43q-29.73,0-54.4,7.24A268.39,268.39,0,0,0,2542,604.59l-11.38-27.11a329.26,329.26,0,0,1,53.76-20.59q27.21-7.73,60.73-7.73,66.43,0,101.86,35.27,32.88,32.75,32.88,90.69V875.4h-30.36V821.87a159,159,0,0,1-19.92,22.36,135.4,135.4,0,0,1-26.89,19.52A156.43,156.43,0,0,1,2626.18,883Zm1.89-29.6a149.91,149.91,0,0,0,46.81-7.21,128.83,128.83,0,0,0,38.91-20.07,96.5,96.5,0,0,0,26.56-31,83.32,83.32,0,0,0,9.81-40.14V718.54q-20.26-5-47.45-9.72t-62-4.71q-51.26,0-78.77,20.39t-27.51,54.24V780q0,17.57,7.59,31a71,71,0,0,0,20.57,22.89,97.24,97.24,0,0,0,30,14.43,124.63,124.63,0,0,0,35.43,5.06Z"/><path class="018a57af-5ce7-4272-928f-a85e7bec577a" d="M1936.53,955.25h-73.1v198h-18v-198h-73V940h164.06Z"/><path class="018a57af-5ce7-4272-928f-a85e7bec577a" d="M1942.68,1071.71q0-22.85,8.86-41.16a67.55,67.55,0,0,1,25-28.49q16.18-10.18,36.69-10.18,31.63,0,51.27,22.19t19.63,58.81v3.66q0,23-8.86,41.38t-25,28.34q-16.12,10-36.77,10-31.5,0-51.2-22.19t-19.7-58.81Zm17.58,4.83q0,28.43,14.72,46.66t38.6,18.24q23.73,0,38.45-18.24t14.72-48.12v-3.37a80.56,80.56,0,0,0-6.74-33.25q-6.74-15.07-18.9-23.36a48.29,48.29,0,0,0-27.83-8.28q-23.44,0-38.23,18.38t-14.79,48.12Z"/><path class="018a57af-5ce7-4272-928f-a85e7bec577a" d="M2193.61,1009.75a65.6,65.6,0,0,0-11.87-1q-16.41,0-27.76,9.16t-16.19,26.59v108.8h-17.43V994.8h17.14l.29,25.2q13.9-28.12,44.68-28.12,7.32,0,11.57,1.9Z"/><path class="018a57af-5ce7-4272-928f-a85e7bec577a" d="M2208.7,1071.71q0-22.85,8.86-41.16a67.55,67.55,0,0,1,25-28.49q16.18-10.18,36.69-10.18,31.64,0,51.27,22.19t19.63,58.81v3.66q0,23-8.86,41.38t-25,28.34q-16.12,10-36.77,10-31.5,0-51.2-22.19t-19.7-58.81Zm17.58,4.83q0,28.43,14.72,46.66t38.6,18.24q23.73,0,38.45-18.24t14.72-48.12v-3.37a80.56,80.56,0,0,0-6.74-33.25q-6.74-15.07-18.9-23.36a48.29,48.29,0,0,0-27.83-8.28q-23.45,0-38.23,18.38t-14.79,48.12Z"/><path class="018a57af-5ce7-4272-928f-a85e7bec577a" d="M2403.08,994.8l.59,27.1q8.92-14.65,22.27-22.34a57.9,57.9,0,0,1,29.44-7.69q25.48,0,37.94,14.36t12.6,43.07v104h-17.43V1049.15q-.15-21.24-9-31.64t-28.34-10.4a44.36,44.36,0,0,0-28.78,10.18q-12.52,10.18-18.53,27.47V1153.3h-17.43V994.8Z"/><path class="018a57af-5ce7-4272-928f-a85e7bec577a" d="M2578.42,954.23V994.8h32.81v14.36h-32.81v105.73q0,13.2,4.76,19.65t15.89,6.45a109.32,109.32,0,0,0,14.21-1.46l.73,14.23q-6.89,2.48-18.75,2.47-18,0-26.22-10.47t-8.2-30.83V1009.16h-29.15V994.8h29.15V954.23Z"/><path class="018a57af-5ce7-4272-928f-a85e7bec577a" d="M2635,1071.71q0-22.85,8.86-41.16a67.55,67.55,0,0,1,25-28.49q16.18-10.18,36.69-10.18,31.63,0,51.27,22.19t19.63,58.81v3.66q0,23-8.86,41.38t-25,28.34q-16.12,10-36.77,10-31.5,0-51.2-22.19t-19.7-58.81Zm17.58,4.83q0,28.43,14.72,46.66t38.6,18.24q23.73,0,38.45-18.24t14.72-48.12v-3.37a80.56,80.56,0,0,0-6.74-33.25q-6.73-15.07-18.9-23.36a48.29,48.29,0,0,0-27.83-8.28q-23.45,0-38.23,18.38t-14.79,48.12Z"/></svg>